<svg viewBox="0 0 32 32" xmlns="http://www.w3.org/2000/svg"><path d="m16.19 17.23a4.94 4.94 0 0 0 7 0 4.23 4.23 0 0 0 .64-.81 3.72 3.72 0 0 0 .45-.89 10.27 10.27 0 0 0 -9.17 0 4.1 4.1 0 0 0 .44.89 5 5 0 0 0 .64.81z"/><path d="m19.69 6.85a6.93 6.93 0 0 0 -6.92 6.92 6.74 6.74 0 0 0 .62 2.84 10.52 10.52 0 0 1 1.72-1.07 4.77 4.77 0 0 1 -.34-1.77 4.93 4.93 0 0 1 9.85 0 4.77 4.77 0 0 1 -.34 1.77 10.57 10.57 0 0 1 1.72 1.08 6.79 6.79 0 0 0 .62-2.85 6.93 6.93 0 0 0 -6.93-6.92z"/><path d="m19.69 15.62a1.85 1.85 0 1 1 1.85-1.85 1.84 1.84 0 0 1 -1.85 1.85zm0-2a.15.15 0 0 0 -.15.15c0 .17.31.17.31 0a.15.15 0 0 0 -.16-.15z"/><path d="m12.08 24.08a1 1 0 0 1 -.56-.17l-5.07-3.39a1 1 0 0 1 -.45-.73 1 1 0 0 1 .29-.8l.85-.85a1 1 0 0 1 1.15-.14l5.08 2.54a1 1 0 0 1 .45 1.34l-.82 1.64a1 1 0 0 1 -.64.52.73.73 0 0 1 -.28.04z"/><path d="m5.51 18.17a1 1 0 0 1 -.71-.3l-.3-.3c-.08-.07-.18-.16-1.1-1.09a4 4 0 0 1 .06-5.68 3.36 3.36 0 0 1 2.38-1 3.39 3.39 0 0 1 2.4 1 2.92 2.92 0 0 1 0 4.14 2 2 0 0 1 -2.41.39 1.65 1.65 0 0 1 -.83-1.78 1 1 0 0 1 1.2-.75 1 1 0 0 1 .72.64.88.88 0 0 0 .2-.53 1 1 0 0 0 -.27-.66 1.38 1.38 0 0 0 -1-.42 1.54 1.54 0 0 0 -1 .4 2 2 0 0 0 0 2.85c.82.84.91.92 1 1l.42.41a1 1 0 0 1 0 1.41 1 1 0 0 1 -.76.27z"/><path d="m29.82 27.13h.18v-2.36a10.31 10.31 0 0 0 -4-8.15 5.92 5.92 0 0 1 -.49.89 5.76 5.76 0 0 1 -.6.8 6.9 6.9 0 0 1 -10.43 0 4.72 4.72 0 0 1 -.6-.81 4.55 4.55 0 0 1 -.49-.89 10.34 10.34 0 0 0 -4 8.16v2.36z"/><path d="m9.6 28.88a2.29 2.29 0 0 0 .14.27 2 2 0 0 0 1.64.85h16.62a2 2 0 0 0 1.64-.85 2.29 2.29 0 0 0 .14-.27z"/></svg>